# xmcd CD database file
# Copyright (C) 1997 Ti Kan
# 
# Track frame offsets:
#     150
#     12409
#     31282
#     42895
#     59212
#     82605
#     101102
#     114897
#     137655
#     152360
#     168634
#     181682
# 
# Disc length: 2663 seconds
# 
# Revision: 1
# Processed by: cddbd v1.4b41PL1 Copyright (c) Steve Scherf et al.
# Submitted via: DiscPlay 4.0.4
# 
DISCID=8d0a650c
DTITLE=Quartette - Work of the Heart
DYEAR=1900
DGENRE=
TTITLE0=Runaway Heart
TTITLE1=No Place Like Home
TTITLE2=Inspiration
TTITLE3=Spring of '45
TTITLE4=This She Knows
TTITLE5=When I Can Read the Titles Clear/ A Road Less Travelled On
TTITLE6=The Best is Yet to Come
TTITLE7=Piece by Piece
TTITLE8=Alison Lives by the Big Bend
TTITLE9=Street of the Mariachi
TTITLE10=Just Like a Woman
TTITLE11=The Promissed Land
EXTD=
EXTT0=
EXTT1=
EXTT2=
EXTT3=
EXTT4=
EXTT5=
EXTT6=
EXTT7=
EXTT8=
EXTT9=
EXTT10=
EXTT11=
PLAYORDER=
